# Blender v2.79 (sub 0) OBJ File: 'wesh-marker-remake.blend'
# www.blender.org
o ReWesh.8x8_Cube.005
v -0.500000 -0.500000 0.500000
v -0.500000 0.500000 0.500000
v -0.500000 -0.500000 -0.500000
v -0.500000 0.500000 -0.500000
v 0.500000 -0.500000 0.500000
v 0.500000 0.500000 0.500000
v 0.500000 -0.500000 -0.500000
v 0.500000 0.500000 -0.500000
v -4.430000 -0.470000 8.430000
v 3.470000 -0.470000 8.470000
v -4.470000 -0.470000 8.470000
v 3.430000 -0.470000 8.430000
v -4.430000 -0.470000 0.570000
v 3.430000 -0.470000 0.570000
v -4.470000 -0.470000 0.530000
v 3.470000 -0.470000 0.530000
v -4.430000 -0.430000 8.430000
v -4.430000 -0.430000 8.470000
v -4.470000 -0.430000 0.570000
v -4.430000 -0.430000 0.570000
v 3.430000 -0.430000 0.570000
v 3.470000 -0.430000 0.570000
v 3.430000 -0.430000 8.430000
v 3.470000 -0.430000 8.430000
v -4.470000 -0.430000 8.430000
v 3.430000 -0.430000 8.470000
v -4.430000 -0.430000 0.530000
v 3.430000 -0.430000 0.530000
v -4.430000 7.430000 8.430000
v -4.430000 7.430000 8.470000
v -4.470000 7.430000 0.570000
v -4.430000 7.430000 0.570000
v 3.430000 7.430000 0.570000
v 3.470000 7.430000 0.570000
v 3.430000 7.430000 8.430000
v 3.470000 7.430000 8.430000
v 3.470000 7.470000 8.470000
v -4.470000 7.430000 8.430000
v -4.470000 7.470000 8.470000
v 3.430000 7.430000 8.470000
v -4.470000 7.470000 0.530000
v -4.430000 7.430000 0.530000
v 3.430000 7.430000 0.530000
v 3.470000 7.470000 0.530000
v -4.430000 7.470000 8.430000
v -4.430000 7.470000 0.570000
v 3.430000 7.470000 0.570000
v 3.430000 7.470000 8.430000
vt 1.000000 0.333333
vt 1.000000 0.666667
vt 0.666667 0.666667
vt 0.666667 0.333333
vt 1.000000 0.666667
vt 1.000000 1.000000
vt 0.666667 1.000000
vt 0.666667 0.666667
vt 1.000000 0.333333
vt 1.000000 0.666667
vt 0.666667 0.666667
vt 0.666667 0.333333
vt 1.000000 0.333333
vt 1.000000 0.666667
vt 0.666667 0.666667
vt 0.666667 0.333333
vt 0.666667 0.333333
vt 1.000000 0.333333
vt 0.000000 0.993056
vt 0.006944 0.993056
vt 0.006944 1.000000
vt 0.000000 1.000000
vt 0.000000 0.993056
vt 0.006944 0.993056
vt 0.000000 1.000000
vt 0.000000 0.993056
vt 0.006944 1.000000
vt 0.000000 1.000000
vt 0.006944 0.993056
vt 0.006944 1.000000
vt 0.000000 0.993056
vt 0.006944 0.993056
vt 0.006944 1.000000
vt 0.000000 1.000000
vt 0.000000 0.993056
vt 0.006944 0.993056
vt 0.006944 1.000000
vt 0.000000 1.000000
vt 0.006944 0.993056
vt 0.006944 1.000000
vt 0.000000 1.000000
vt 0.000000 0.993056
vt 0.006944 0.993056
vt 0.006944 1.000000
vt 0.000000 1.000000
vt 0.006944 1.000000
vt 0.000000 1.000000
vt 0.000000 0.993056
vt 0.006944 1.000000
vt 0.000000 1.000000
vt 0.006944 0.993056
vt 0.006944 1.000000
vt 0.000000 1.000000
vt 0.000000 0.993056
vt 0.006944 0.993056
vt 0.006944 1.000000
vt 0.000000 1.000000
vt 0.006944 1.000000
vt 0.000000 1.000000
vt 0.000000 0.993056
vt 0.006944 0.993056
vt 0.006944 1.000000
vt 0.006944 0.993056
vt 0.006944 1.000000
vt 0.000000 1.000000
vt 0.006944 1.000000
vt 0.000000 1.000000
vt 0.000000 0.993056
vt 0.006944 1.000000
vt 0.000000 1.000000
vt 0.000000 0.993056
vt 0.006944 0.993056
vt 0.000000 1.000000
vt 0.006944 1.000000
vt 0.000000 0.993056
vt 0.006944 0.993056
vt 0.000000 1.000000
vt 0.000000 0.993056
vt 0.006944 0.993056
vt 0.006944 1.000000
vt 0.000000 1.000000
vt 0.000000 0.993056
vt 0.006944 0.993056
vt 0.006944 1.000000
vt 0.000000 1.000000
vt 0.000000 0.993056
vt 0.006944 0.993056
vt 0.006944 1.000000
vt 0.000000 1.000000
vt 0.000000 0.993056
vt 0.006944 1.000000
vt 0.000000 1.000000
vt 0.006944 0.993056
vt 0.006944 1.000000
vt 0.000000 1.000000
vt 0.000000 0.993056
vt 0.006944 0.993056
vt 0.006944 1.000000
vt 0.000000 1.000000
vt 0.006944 0.993056
vt 0.006944 1.000000
vt 0.000000 1.000000
vt 0.000000 0.993056
vt 0.006944 0.993056
vt 0.000000 1.000000
vt 0.000000 0.993056
vt 0.006944 1.000000
vt 0.000000 1.000000
vt 0.000000 0.993056
vt 0.006944 1.000000
vt 0.000000 0.993056
vt 0.006944 1.000000
vt 0.000000 1.000000
vt 0.006944 1.000000
vt 0.000000 1.000000
vt 0.006944 0.993056
vt 0.006944 1.000000
vt 0.000000 1.000000
vt 0.000000 0.993056
vt 0.006944 0.993056
vt 0.000000 0.993056
vt 0.006944 0.993056
vt 0.006944 1.000000
vt 0.000000 0.993056
vt 0.006944 0.993056
vt 0.000000 0.993056
vt 0.006944 0.993056
vt 0.000000 0.993056
vt 0.006944 0.993056
vt 0.006944 0.993056
vt 0.006944 0.993056
vt 0.006944 0.993056
vt 0.006944 1.000000
vt 0.000000 1.000000
vt 0.000000 0.993056
vt 0.006944 0.993056
vt 0.000000 0.993056
vt 0.006944 0.993056
vt 0.006944 1.000000
vt 0.000000 0.993056
vt 0.006944 0.993056
vt 0.000000 0.993056
vt 0.006944 0.993056
vt 0.006944 1.000000
vt 0.000000 1.000000
vt 0.000000 0.993056
vn -1.0000 0.0000 0.0000
vn 0.0000 0.0000 -1.0000
vn 1.0000 0.0000 0.0000
vn 0.0000 0.0000 1.0000
vn 0.0000 -1.0000 0.0000
vn 0.0000 1.0000 0.0000
s off
f 1/1/1 2/2/1 4/3/1 3/4/1
f 3/5/2 4/6/2 8/7/2 7/8/2
f 7/9/3 8/10/3 6/11/3 5/12/3
f 5/13/4 6/14/4 2/15/4 1/16/4
f 3/5/5 7/8/5 5/12/5 1/1/5
f 8/17/6 4/18/6 2/2/6 6/11/6
f 16/19/5 10/20/5 12/21/5 14/22/5
f 11/23/5 9/24/5 12/21/5 10/25/5
f 13/26/5 9/24/5 11/27/5 15/28/5
f 16/19/5 14/29/5 13/30/5 15/28/5
f 23/31/6 24/32/6 22/33/6 21/34/6
f 18/35/3 17/36/3 29/37/3 30/38/3
f 23/31/1 26/39/1 40/40/1 35/41/1
f 15/42/1 19/43/1 31/44/1 41/45/1
f 23/31/6 17/36/6 18/46/6 26/47/6
f 25/48/6 17/36/6 20/49/6 19/50/6
f 25/48/1 11/51/1 39/52/1 38/53/1
f 20/54/6 21/55/6 28/56/6 27/57/6
f 13/26/4 14/29/4 21/58/4 20/59/4
f 14/60/1 12/61/1 23/62/1 21/34/1
f 16/19/2 15/63/2 27/64/2 28/65/2
f 11/23/4 10/20/4 26/66/4 18/67/4
f 12/68/2 9/24/2 17/69/2 23/70/2
f 9/71/3 13/72/3 20/49/3 17/73/3
f 15/42/1 11/51/1 25/74/1 19/50/1
f 10/75/3 16/76/3 22/33/3 24/77/3
f 30/78/5 29/79/5 35/80/5 40/81/5
f 17/82/2 25/83/2 38/84/2 29/85/2
f 19/86/4 20/87/4 32/88/4 31/89/4
f 27/90/2 15/63/2 41/91/2 42/92/2
f 11/23/4 18/93/4 30/94/4 39/95/4
f 21/96/4 22/97/4 34/98/4 33/99/4
f 16/19/2 28/100/2 43/101/2 44/102/2
f 24/103/2 23/104/2 35/80/2 36/105/2
f 22/106/3 16/76/3 44/107/3 34/108/3
f 26/109/4 10/20/4 37/110/4 40/81/4
f 28/111/1 21/55/1 33/112/1 43/113/1
f 10/75/3 24/32/3 36/114/3 37/115/3
f 20/54/3 27/116/3 42/117/3 32/118/3
f 31/119/5 32/120/5 29/37/5 38/53/5
f 33/121/4 47/122/4 46/123/4 32/118/4
f 43/124/5 33/125/5 32/88/5 42/92/5
f 44/126/3 37/127/3 36/114/3 34/108/3
f 40/128/4 37/127/4 39/52/4 30/38/4
f 31/119/1 38/129/1 39/52/1 41/45/1
f 43/124/2 42/130/2 41/91/2 44/102/2
f 33/121/5 34/131/5 36/114/5 35/41/5
f 33/121/1 35/132/1 48/133/1 47/134/1
f 45/135/2 48/136/2 35/80/2 29/85/2
f 32/137/3 46/138/3 45/139/3 29/85/3
f 45/135/6 46/138/6 41/91/6 39/95/6
f 48/140/6 45/141/6 39/52/6 37/115/6
f 37/142/6 44/143/6 47/144/6 48/145/6
f 46/146/6 47/122/6 44/107/6 41/45/6
