# Blender v2.79 (sub 0) OBJ File: 'wesh-marker-remake.blend'
# www.blender.org
o ReWesh.2x2
v -1.480000 -0.520000 2.480000
v 0.520000 -0.520000 2.520000
v -1.520000 -0.520000 2.520000
v 0.480000 -0.520000 2.480000
v -1.480000 -0.520000 0.520000
v 0.480000 -0.520000 0.520000
v -1.520000 -0.520000 0.480000
v 0.520000 -0.520000 0.480000
v -1.480000 -0.480000 2.480000
v -1.480000 -0.480000 2.520000
v -1.520000 -0.480000 0.520000
v -1.480000 -0.480000 0.520000
v 0.480000 -0.480000 0.520000
v 0.520000 -0.480000 0.520000
v 0.480000 -0.480000 2.480000
v 0.520000 -0.480000 2.480000
v -1.520000 -0.480000 2.480000
v 0.480000 -0.480000 2.520000
v -1.480000 -0.480000 0.480000
v 0.480000 -0.480000 0.480000
v -1.480000 1.480000 2.480000
v -1.480000 1.480000 2.520000
v -1.520000 1.480000 0.520000
v -1.480000 1.480000 0.520000
v 0.480000 1.480000 0.520000
v 0.520000 1.480000 0.520000
v 0.480000 1.480000 2.480000
v 0.520000 1.480000 2.480000
v 0.520000 1.520000 2.520000
v -1.520000 1.480000 2.480000
v -1.520000 1.520000 2.520000
v 0.480000 1.480000 2.520000
v -1.520000 1.520000 0.480000
v -1.480000 1.480000 0.480000
v 0.480000 1.480000 0.480000
v 0.520000 1.520000 0.480000
v -1.480000 1.520000 2.480000
v -1.480000 1.520000 0.520000
v 0.480000 1.520000 0.520000
v 0.480000 1.520000 2.480000
v 0.437500 0.437500 -0.437500
v -0.437500 -0.437500 -0.437500
v -0.500000 -0.500000 -0.500000
v 0.500000 -0.500000 0.500000
v -0.437500 -0.437500 0.437500
v -0.500000 -0.500000 0.500000
v -0.500000 0.500000 -0.500000
v 0.500000 -0.500000 -0.500000
v 0.500000 0.500000 0.500000
v 0.437500 0.500000 -0.437500
v 0.437500 0.500000 0.437500
v -0.437500 0.500000 -0.437500
v -0.437500 0.500000 0.437500
v -0.437500 -0.500000 -0.437500
v -0.437500 -0.500000 0.437500
v 0.437500 -0.500000 -0.437500
v 0.437500 -0.500000 0.437500
v -0.500000 0.500000 0.500000
v 0.500000 0.500000 -0.500000
v 0.437500 0.437500 0.500000
v 0.437500 -0.437500 0.500000
v -0.437500 0.437500 0.500000
v -0.437500 -0.437500 0.500000
v -0.437500 0.437500 -0.500000
v -0.437500 -0.437500 -0.500000
v 0.437500 0.437500 -0.500000
v 0.437500 -0.437500 -0.500000
v 0.500000 0.437500 -0.437500
v 0.500000 -0.437500 -0.437500
v 0.500000 0.437500 0.437500
v 0.500000 -0.437500 0.437500
v -0.500000 0.437500 0.437500
v -0.500000 -0.437500 0.437500
v -0.500000 0.437500 -0.437500
v -0.500000 -0.437500 -0.437500
v -0.437500 0.437500 0.437500
v -0.437500 0.437500 -0.437500
v 0.437500 -0.437500 0.437500
v 0.437500 0.437500 0.437500
v 0.437500 -0.437500 -0.437500
v -0.312500 0.125000 -0.437500
v -0.312500 0.312500 -0.437500
v -0.312500 0.125000 -0.500000
v -0.312500 0.312500 -0.500000
v 0.312500 0.125000 -0.437500
v 0.312500 0.312500 -0.437500
v 0.312500 0.125000 -0.500000
v 0.312500 0.312500 -0.500000
v -0.312500 -0.312500 -0.437500
v -0.312500 -0.187500 -0.437500
v -0.312500 -0.312500 -0.500000
v -0.312500 -0.187500 -0.500000
v 0.312500 -0.312500 -0.437500
v 0.312500 -0.187500 -0.437500
v 0.312500 -0.312500 -0.500000
v 0.312500 -0.187500 -0.500000
v 0.125000 -0.062500 -0.437500
v 0.125000 0.062500 -0.437500
v 0.125000 -0.062500 -0.500000
v 0.125000 0.062500 -0.500000
v 0.312500 -0.062500 -0.437500
v 0.312500 0.062500 -0.437500
v 0.312500 -0.062500 -0.500000
v 0.312500 0.062500 -0.500000
v -0.312500 -0.062500 -0.437500
v -0.312500 0.062500 -0.437500
v -0.312500 -0.062500 -0.500000
v -0.312500 0.062500 -0.500000
v -0.125000 -0.062500 -0.437500
v -0.125000 0.062500 -0.437500
v -0.125000 -0.062500 -0.500000
v -0.125000 0.062500 -0.500000
vt 0.007812 0.031250
vt 0.117188 0.031250
vt 0.117188 0.468622
vt 0.007812 0.468622
vt 0.007812 0.031250
vt 0.117188 0.031250
vt 0.007812 0.468622
vt 0.007812 0.031250
vt 0.117188 0.468622
vt 0.007812 0.468622
vt 0.117188 0.031250
vt 0.117188 0.468622
vt 0.007812 0.031250
vt 0.117188 0.031250
vt 0.117188 0.468622
vt 0.007812 0.468622
vt 0.007812 0.031250
vt 0.117188 0.031250
vt 0.117188 0.468622
vt 0.007812 0.468622
vt 0.117188 0.031250
vt 0.117188 0.468622
vt 0.007812 0.468622
vt 0.007812 0.031250
vt 0.117188 0.031250
vt 0.117188 0.468622
vt 0.007812 0.468622
vt 0.117188 0.468622
vt 0.007812 0.468622
vt 0.007812 0.031250
vt 0.117188 0.468622
vt 0.007812 0.468622
vt 0.117188 0.031250
vt 0.117188 0.468622
vt 0.007812 0.468622
vt 0.007812 0.031250
vt 0.117188 0.031250
vt 0.117188 0.468622
vt 0.007812 0.468622
vt 0.117188 0.468622
vt 0.007812 0.468622
vt 0.007812 0.031250
vt 0.117188 0.031250
vt 0.117188 0.468622
vt 0.117188 0.031250
vt 0.117188 0.468622
vt 0.007812 0.468622
vt 0.117188 0.468622
vt 0.007812 0.468622
vt 0.007812 0.031250
vt 0.117188 0.468622
vt 0.007812 0.468622
vt 0.007812 0.031250
vt 0.117188 0.031250
vt 0.007812 0.468622
vt 0.117188 0.468622
vt 0.007812 0.031250
vt 0.117188 0.031250
vt 0.007812 0.468622
vt 0.007812 0.031250
vt 0.117188 0.031250
vt 0.117188 0.468622
vt 0.007812 0.468622
vt 0.007812 0.031250
vt 0.117188 0.031250
vt 0.117188 0.468622
vt 0.007812 0.468622
vt 0.007812 0.031250
vt 0.117188 0.031250
vt 0.117188 0.468622
vt 0.007812 0.468622
vt 0.007812 0.031250
vt 0.117188 0.468622
vt 0.007812 0.468622
vt 0.117188 0.031250
vt 0.117188 0.468622
vt 0.007812 0.468622
vt 0.007812 0.031250
vt 0.117188 0.031250
vt 0.117188 0.468622
vt 0.007812 0.468622
vt 0.117188 0.031250
vt 0.117188 0.468622
vt 0.007812 0.468622
vt 0.007812 0.031250
vt 0.117188 0.031250
vt 0.007812 0.468622
vt 0.007812 0.031250
vt 0.117188 0.468622
vt 0.007812 0.468622
vt 0.007812 0.031250
vt 0.117188 0.468622
vt 0.007812 0.031250
vt 0.117188 0.468622
vt 0.007812 0.468622
vt 0.117188 0.468622
vt 0.007812 0.468622
vt 0.117188 0.031250
vt 0.117188 0.468622
vt 0.007812 0.468622
vt 0.007812 0.031250
vt 0.117188 0.031250
vt 0.007812 0.031250
vt 0.117188 0.031250
vt 0.117188 0.468622
vt 0.007812 0.031250
vt 0.117188 0.031250
vt 0.007812 0.031250
vt 0.117188 0.031250
vt 0.007812 0.031250
vt 0.117188 0.031250
vt 0.117188 0.031250
vt 0.117188 0.031250
vt 0.117188 0.031250
vt 0.117188 0.468622
vt 0.007812 0.468622
vt 0.007812 0.031250
vt 0.117188 0.031250
vt 0.007812 0.031250
vt 0.117188 0.031250
vt 0.117188 0.468622
vt 0.007812 0.031250
vt 0.117188 0.031250
vt 0.007812 0.031250
vt 0.117188 0.031250
vt 0.117188 0.468622
vt 0.007812 0.468622
vt 0.007812 0.031250
vt 0.125000 -0.000128
vt 0.250000 -0.000128
vt 0.250000 0.031122
vt 0.125000 0.031122
vt 0.125000 -0.000128
vt 0.250000 -0.000128
vt 0.250000 0.031122
vt 0.125000 0.031122
vt 0.125000 -0.000128
vt 0.250000 -0.000128
vt 0.250000 0.031122
vt 0.125000 0.031122
vt 0.125000 -0.000128
vt 0.250000 -0.000128
vt 0.250000 0.031122
vt 0.125000 0.031122
vt 0.125000 -0.000128
vt 0.250000 -0.000128
vt 0.250000 0.031122
vt 0.125000 0.031122
vt 0.125000 -0.000128
vt 0.250000 -0.000128
vt 0.250000 0.031122
vt 0.125000 0.031122
vt 0.125000 -0.000128
vt 0.250000 -0.000128
vt 0.250000 0.031122
vt 0.125000 0.031122
vt 0.125000 -0.000128
vt 0.250000 -0.000128
vt 0.250000 0.031122
vt 0.125000 0.031122
vt 0.125000 -0.000128
vt 0.250000 -0.000128
vt 0.125000 -0.000128
vt 0.250000 -0.000128
vt 0.125000 -0.000128
vt 0.250000 -0.000128
vt 0.125000 -0.000128
vt 0.250000 -0.000128
vt 0.125000 -0.000128
vt 0.250000 -0.000128
vt 0.125000 -0.000128
vt 0.250000 -0.000128
vt 0.125000 -0.000128
vt 0.250000 -0.000128
vt 0.125000 -0.000128
vt 0.250000 -0.000128
vt 0.125000 -0.000128
vt 0.250000 -0.000128
vt 0.125000 -0.000128
vt 0.250000 -0.000128
vt 0.125000 -0.000128
vt 0.250000 -0.000128
vt 0.125000 -0.000128
vt 0.250000 -0.000128
vt 0.125000 -0.000128
vt 0.250000 -0.000128
vt 0.125000 -0.000128
vt 0.250000 -0.000128
vt 0.125000 -0.000128
vt 0.250000 -0.000128
vt 0.250000 0.499872
vt 0.125000 0.499872
vt 0.132813 0.468622
vt 0.242188 0.468622
vt 0.132812 0.031122
vt 0.125000 -0.000128
vt 0.242187 0.031122
vt 0.250000 -0.000128
vt 0.125000 0.499872
vt 0.132812 0.468622
vt 0.242187 0.468622
vt 0.250000 -0.000128
vt 0.250000 0.499872
vt 0.242188 0.468622
vt 0.242187 0.031122
vt 0.132812 0.031122
vt 0.132813 0.468622
vt 0.125000 0.499872
vt 0.125000 -0.000128
vt 0.242188 0.468622
vt 0.242187 0.031122
vt 0.250000 -0.000128
vt 0.250000 0.499872
vt 0.125000 -0.000128
vt 0.250000 -0.000128
vt 0.242187 0.031122
vt 0.132813 0.031122
vt 0.132812 0.031122
vt 0.125000 -0.000128
vt 0.250000 -0.000128
vt 0.242187 0.031122
vt 0.132812 0.468622
vt 0.242188 0.468622
vt 0.250000 0.499872
vt 0.125000 0.499872
vt 0.132812 0.031122
vt 0.132813 0.468622
vt 0.125000 0.499872
vt 0.132813 0.468622
vt 0.242187 0.468622
vt 0.125000 -0.000128
vt 0.242188 0.031122
vt 0.132812 0.031122
vt 0.125000 -0.000128
vt 0.250000 -0.000128
vt 0.242188 0.031122
vt 0.242188 0.468622
vt 0.132812 0.468622
vt 0.132812 0.031122
vt 0.367188 0.031122
vt 0.367188 0.468622
vt 0.257812 0.468622
vt 0.257812 0.031122
vt 0.242188 0.031122
vt 0.242188 0.468622
vt 0.132812 0.468622
vt 0.132812 0.031122
vt 0.242188 0.031122
vt 0.242188 0.468622
vt 0.132812 0.468622
vt 0.132812 0.031122
vt 0.242188 0.468622
vt 0.132812 0.468622
vt 0.257812 0.531122
vt 0.367188 0.531122
vt 0.367188 0.968622
vt 0.257812 0.968622
vt 0.351562 0.312372
vt 0.351562 0.406122
vt 0.343750 0.406122
vt 0.343750 0.312372
vt 0.351562 0.312372
vt 0.351562 0.406122
vt 0.273438 0.406122
vt 0.273438 0.312372
vt 0.281250 0.312372
vt 0.281250 0.406122
vt 0.273438 0.406122
vt 0.273438 0.312372
vt 0.351562 0.343622
vt 0.273438 0.343622
vt 0.273438 0.374872
vt 0.351562 0.374872
vt 0.351562 0.093622
vt 0.351562 0.156122
vt 0.343750 0.156122
vt 0.343750 0.093622
vt 0.351562 0.093622
vt 0.351562 0.156122
vt 0.273438 0.156122
vt 0.273438 0.093622
vt 0.281250 0.093622
vt 0.281250 0.156122
vt 0.273438 0.156122
vt 0.273438 0.093622
vt 0.351562 0.124872
vt 0.273438 0.124872
vt 0.273438 0.124872
vt 0.351562 0.124872
vt 0.296875 0.218622
vt 0.296875 0.281122
vt 0.289062 0.281122
vt 0.289062 0.218622
vt 0.296875 0.218622
vt 0.296875 0.281122
vt 0.273438 0.281122
vt 0.273438 0.218622
vt 0.281250 0.218622
vt 0.281250 0.281122
vt 0.273438 0.281122
vt 0.273438 0.218622
vt 0.296875 0.249872
vt 0.273438 0.249872
vt 0.273438 0.249872
vt 0.296875 0.249872
vt 0.351562 0.218622
vt 0.351562 0.281122
vt 0.343750 0.281122
vt 0.343750 0.218622
vt 0.351562 0.218622
vt 0.351562 0.281122
vt 0.328125 0.281122
vt 0.328125 0.218622
vt 0.335938 0.218622
vt 0.335938 0.281122
vt 0.328125 0.281122
vt 0.328125 0.218622
vt 0.351562 0.249872
vt 0.328125 0.249872
vt 0.328125 0.249872
vt 0.351562 0.249872
vn 0.0000 -1.0000 0.0000
vn 0.0000 1.0000 0.0000
vn 1.0000 0.0000 0.0000
vn -1.0000 0.0000 0.0000
vn 0.0000 0.0000 1.0000
vn 0.0000 0.0000 -1.0000
s off
f 8/1/1 2/2/1 4/3/1 6/4/1
f 3/5/1 1/6/1 4/3/1 2/7/1
f 5/8/1 1/6/1 3/9/1 7/10/1
f 8/1/1 6/11/1 5/12/1 7/10/1
f 15/13/2 16/14/2 14/15/2 13/16/2
f 10/17/3 9/18/3 21/19/3 22/20/3
f 15/13/4 18/21/4 32/22/4 27/23/4
f 7/24/4 11/25/4 23/26/4 33/27/4
f 15/13/2 9/18/2 10/28/2 18/29/2
f 17/30/2 9/18/2 12/31/2 11/32/2
f 17/30/4 3/33/4 31/34/4 30/35/4
f 12/36/2 13/37/2 20/38/2 19/39/2
f 5/8/5 6/11/5 13/40/5 12/41/5
f 6/42/4 4/43/4 15/44/4 13/16/4
f 8/1/6 7/45/6 19/46/6 20/47/6
f 3/5/5 2/2/5 18/48/5 10/49/5
f 4/50/6 1/6/6 9/51/6 15/52/6
f 1/53/3 5/54/3 12/31/3 9/55/3
f 7/24/4 3/33/4 17/56/4 11/32/4
f 2/57/3 8/58/3 14/15/3 16/59/3
f 22/60/1 21/61/1 27/62/1 32/63/1
f 9/64/6 17/65/6 30/66/6 21/67/6
f 11/68/5 12/69/5 24/70/5 23/71/5
f 19/72/6 7/45/6 33/73/6 34/74/6
f 3/5/5 10/75/5 22/76/5 31/77/5
f 13/78/5 14/79/5 26/80/5 25/81/5
f 8/1/6 20/82/6 35/83/6 36/84/6
f 16/85/6 15/86/6 27/62/6 28/87/6
f 14/88/3 8/58/3 36/89/3 26/90/3
f 18/91/5 2/2/5 29/92/5 32/63/5
f 20/93/4 13/37/4 25/94/4 35/95/4
f 2/57/3 16/14/3 28/96/3 29/97/3
f 12/36/3 19/98/3 34/99/3 24/100/3
f 23/101/1 24/102/1 21/19/1 30/35/1
f 25/103/5 39/104/5 38/105/5 24/100/5
f 35/106/1 25/107/1 24/70/1 34/74/1
f 36/108/3 29/109/3 28/96/3 26/90/3
f 32/110/5 29/109/5 31/34/5 22/20/5
f 23/101/4 30/111/4 31/34/4 33/27/4
f 35/106/6 34/112/6 33/73/6 36/84/6
f 25/103/1 26/113/1 28/96/1 27/23/1
f 25/103/4 27/114/4 40/115/4 39/116/4
f 37/117/6 40/118/6 27/62/6 21/67/6
f 24/119/3 38/120/3 37/121/3 21/67/3
f 37/117/2 38/120/2 33/73/2 31/77/2
f 40/122/2 37/123/2 31/34/2 29/97/2
f 29/124/2 36/125/2 39/126/2 40/127/2
f 38/128/2 39/104/2 36/89/2 33/27/2
f 50/129/5 52/130/5 77/131/5 41/132/5
f 53/133/6 51/134/6 79/135/6 76/136/6
f 51/137/4 50/138/4 41/139/4 79/140/4
f 52/141/3 53/142/3 76/143/3 77/144/3
f 54/145/5 56/146/5 80/147/5 42/148/5
f 56/149/4 57/150/4 78/151/4 80/152/4
f 55/153/3 54/154/3 42/155/3 45/156/3
f 57/157/6 55/158/6 45/159/6 78/160/6
f 70/161/6 71/162/6 78/151/6 79/140/6
f 69/163/5 68/164/5 41/139/5 80/152/5
f 68/165/1 70/166/1 79/135/1 41/132/1
f 71/167/2 69/168/2 80/147/2 78/160/2
f 65/169/3 64/170/3 77/131/3 42/148/3
f 67/171/2 65/172/2 42/155/2 80/152/2
f 64/173/1 66/174/1 41/139/1 77/144/1
f 66/175/4 67/176/4 80/147/4 41/132/4
f 72/177/1 74/178/1 77/131/1 76/136/1
f 75/179/2 73/180/2 45/159/2 42/148/2
f 73/181/6 72/182/6 76/143/6 45/156/6
f 74/183/5 75/184/5 42/155/5 77/144/5
f 61/185/4 60/186/4 79/135/4 78/160/4
f 63/187/2 61/188/2 78/151/2 45/156/2
f 60/189/1 62/190/1 76/143/1 79/140/1
f 46/191/1 43/192/1 54/193/1 55/194/1
f 56/195/1 54/193/1 43/192/1 48/196/1
f 57/197/1 56/195/1 48/196/1 44/198/1
f 44/198/1 46/191/1 55/194/1 57/197/1
f 46/191/5 44/199/5 61/200/5 63/201/5
f 48/202/6 43/203/6 65/204/6 67/205/6
f 66/206/6 64/207/6 47/208/6 59/209/6
f 52/210/2 50/211/2 59/212/2 47/213/2
f 59/209/6 48/202/6 67/205/6 66/206/6
f 64/207/6 65/204/6 43/203/6 47/208/6
f 47/214/4 43/215/4 75/216/4 74/217/4
f 60/218/5 61/200/5 44/199/5 49/219/5
f 58/220/5 46/191/5 63/201/5 62/221/5
f 70/222/3 68/223/3 59/224/3 49/225/3
f 49/219/2 59/212/2 50/211/2 51/226/2
f 53/227/2 52/210/2 47/213/2 58/228/2
f 74/217/4 72/229/4 58/228/4 47/214/4
f 72/229/4 73/230/4 46/191/4 58/228/4
f 44/231/3 48/202/3 69/232/3 71/233/3
f 49/225/3 44/231/3 71/233/3 70/222/3
f 62/221/5 60/218/5 49/219/5 58/220/5
f 58/228/2 49/219/2 51/226/2 53/227/2
f 68/223/3 69/232/3 48/202/3 59/224/3
f 43/215/4 46/191/4 73/230/4 75/216/4
f 62/234/3 63/235/3 45/159/3 76/136/3
f 45/236/4 76/237/4 77/238/4 42/239/4
f 42/240/6 77/241/6 41/242/6 80/243/6
f 80/244/3 41/245/3 79/246/3 78/247/3
f 78/248/5 79/249/5 76/250/5 45/251/5
f 42/252/1 80/253/1 78/247/1 45/236/1
f 41/254/2 77/255/2 76/256/2 79/257/2
f 81/258/4 82/259/4 84/260/4 83/261/4
f 83/262/6 84/263/6 88/264/6 87/265/6
f 87/266/3 88/267/3 86/268/3 85/269/3
f 83/270/1 87/271/1 85/269/1 81/258/1
f 88/272/2 84/273/2 82/259/2 86/268/2
f 89/274/4 90/275/4 92/276/4 91/277/4
f 91/278/6 92/279/6 96/280/6 95/281/6
f 95/282/3 96/283/3 94/284/3 93/285/3
f 91/286/1 95/287/1 93/285/1 89/274/1
f 96/288/2 92/289/2 90/275/2 94/284/2
f 97/290/4 98/291/4 100/292/4 99/293/4
f 99/294/6 100/295/6 104/296/6 103/297/6
f 103/298/3 104/299/3 102/300/3 101/301/3
f 99/302/1 103/303/1 101/301/1 97/290/1
f 104/304/2 100/305/2 98/291/2 102/300/2
f 105/306/4 106/307/4 108/308/4 107/309/4
f 107/310/6 108/311/6 112/312/6 111/313/6
f 111/314/3 112/315/3 110/316/3 109/317/3
f 107/318/1 111/319/1 109/317/1 105/306/1
f 112/320/2 108/321/2 106/307/2 110/316/2
