# Blender v2.79 (sub 0) OBJ File: 'canvas4.blend'
# www.blender.org
mtllib canvas4.mtl
o mesh01.001_mesh01.002
v 1.500000 -0.490000 0.500000
v 1.400000 -0.490000 0.500000
v 1.400000 -0.489999 4.400000
v 1.500000 -0.489999 4.400000
v -2.400000 -0.490000 0.600000
v -2.500000 -0.490000 0.600000
v -2.500000 -0.489999 4.500000
v -2.400000 -0.489999 4.500000
v 1.500000 -0.489999 4.500000
v 1.500000 -0.489999 4.400000
v -2.400000 -0.489999 4.400001
v -2.400000 -0.489999 4.500000
v 1.400000 -0.490000 0.600000
v 1.400000 -0.490000 0.500000
v -2.500000 -0.490000 0.500000
v -2.500000 -0.490000 0.600000
v 1.500000 3.490000 0.499999
v 1.400000 3.490000 0.499999
v 1.400000 3.490001 4.400000
v 1.500000 3.490001 4.400000
v -2.400000 3.490000 0.600000
v -2.500000 3.490000 0.600000
v -2.500000 3.490001 4.500000
v -2.400000 3.490001 4.500000
v 1.500000 3.490001 4.500000
v 1.500000 3.490001 4.400000
v -2.400000 3.490001 4.400000
v -2.400000 3.490001 4.500000
v 1.400000 3.490000 0.599999
v 1.400000 3.490000 0.499999
v -2.500000 3.490000 0.500000
v -2.500000 3.490000 0.600000
v 0.500000 0.500000 0.500000
v -0.500000 0.500000 0.500000
v -0.500000 -0.500000 0.500000
v 0.500000 -0.500000 0.500000
v -0.500000 -0.500000 -0.500000
v -0.500000 0.500000 -0.500000
v 0.500000 0.500000 -0.500000
v 0.500000 -0.500000 -0.500000
vt 1.000000 0.284722
vt 1.000000 0.298611
vt 0.430556 0.298611
vt 0.430556 0.284722
vt 1.000000 0.243056
vt 1.000000 0.256944
vt 0.430556 0.256944
vt 0.430556 0.243056
vt 0.430556 0.243056
vt 0.430556 0.229167
vt 0.993056 0.229167
vt 0.993056 0.243056
vt 0.430556 0.215278
vt 0.430556 0.201389
vt 0.993056 0.201389
vt 0.993056 0.215278
vt 1.000000 0.270833
vt 1.000000 0.284722
vt 0.430556 0.284722
vt 0.430556 0.270833
vt 1.000000 0.256944
vt 1.000000 0.270833
vt 0.430556 0.270833
vt 0.430556 0.256944
vt 0.430556 0.229167
vt 0.430556 0.215278
vt 0.993056 0.215278
vt 0.993056 0.229167
vt 0.430556 0.201389
vt 0.430556 0.187500
vt 0.993056 0.187500
vt 0.993056 0.201389
vt 1.000000 0.666667
vt 0.666667 0.666667
vt 0.666667 0.333333
vt 1.000000 0.333333
vt 0.333333 0.333333
vt 0.333333 0.666667
vt -0.000000 0.666667
vt 0.000000 0.333333
vt 1.000000 0.333333
vt 1.000000 0.666667
vt 0.666667 0.666667
vt 0.666667 0.333333
vt 1.000000 0.666667
vt 0.666667 0.666667
vt 0.666667 0.333333
vt 1.000000 0.333333
vt 0.666667 0.333333
vt 1.000000 0.333333
vt 1.000000 0.666667
vt 0.666667 0.666667
vn 0.0000 1.0000 -0.0000
vn 0.0000 0.0000 1.0000
vn -0.0000 -0.0000 -1.0000
vn 1.0000 -0.0000 -0.0000
vn -1.0000 0.0000 0.0000
vn 0.0000 -1.0000 0.0000
usemtl ___default___.002
s 1
f 1/1/1 2/2/1 3/3/1 4/4/1
f 5/5/1 6/6/1 7/7/1 8/8/1
f 9/9/1 10/10/1 11/11/1 12/12/1
f 13/13/1 14/14/1 15/15/1 16/16/1
f 17/17/1 18/18/1 19/19/1 20/20/1
f 21/21/1 22/22/1 23/23/1 24/24/1
f 25/25/1 26/26/1 27/27/1 28/28/1
f 29/29/1 30/30/1 31/31/1 32/32/1
f 33/33/2 34/34/2 35/35/2 36/36/2
f 37/37/3 38/38/3 39/39/3 40/40/3
f 40/41/4 39/42/4 33/43/4 36/44/4
f 34/45/5 38/46/5 37/47/5 35/48/5
f 39/49/1 38/50/1 34/45/1 33/43/1
f 35/48/6 37/51/6 40/52/6 36/44/6
